<svg xmlns="http://www.w3.org/2000/svg" xmlns:xlink="http://www.w3.org/1999/xlink" width="23.992" height="23.99" viewBox="0 0 23.992 23.99">
  <defs>
    <clipPath id="clip-path">
      <path id="Clip_2" data-name="Clip 2" d="M0,0H23.992V23.99H0Z" transform="translate(0 0.008)" fill="none"/>
    </clipPath>
  </defs>
  <g id="Group_1" data-name="Group 1" transform="translate(0 -0.008)">
    <g id="Group_3" data-name="Group 3">
      <path id="Clip_2-2" data-name="Clip 2" d="M0,0H23.992V23.99H0Z" transform="translate(0 0.008)" fill="none"/>
      <g id="Group_3-2" data-name="Group 3" clip-path="url(#clip-path)">
        <path id="Fill_1" data-name="Fill 1" d="M12,23.992c-3.248,0-3.672-.014-4.945-.072a8.887,8.887,0,0,1-2.912-.557,5.887,5.887,0,0,1-2.125-1.384A5.866,5.866,0,0,1,.63,19.854a8.858,8.858,0,0,1-.558-2.911C.014,15.668,0,15.244,0,12S.014,8.324.072,7.051A8.861,8.861,0,0,1,.63,4.138,5.872,5.872,0,0,1,2.013,2.013,5.872,5.872,0,0,1,4.138.63,8.861,8.861,0,0,1,7.051.072C8.324.014,8.748,0,12,0s3.672.014,4.946.072A8.858,8.858,0,0,1,19.854.63a5.866,5.866,0,0,1,2.125,1.383,5.887,5.887,0,0,1,1.384,2.125,8.887,8.887,0,0,1,.557,2.912c.058,1.273.072,1.7.072,4.945s-.014,3.672-.072,4.946a8.884,8.884,0,0,1-.557,2.911,6.14,6.14,0,0,1-3.509,3.509,8.884,8.884,0,0,1-2.911.557C15.668,23.978,15.244,23.992,12,23.992Zm0-21.83c-3.213,0-3.591.012-4.847.069a6.673,6.673,0,0,0-2.227.413,3.731,3.731,0,0,0-1.38.9,3.731,3.731,0,0,0-.9,1.38,6.673,6.673,0,0,0-.413,2.227C2.174,8.405,2.162,8.783,2.162,12s.012,3.592.069,4.847a6.659,6.659,0,0,0,.413,2.228,3.731,3.731,0,0,0,.9,1.38,3.731,3.731,0,0,0,1.38.9,6.656,6.656,0,0,0,2.227.413c1.272.058,1.652.07,4.847.07s3.576-.012,4.847-.07a6.642,6.642,0,0,0,2.228-.413,3.97,3.97,0,0,0,2.277-2.277,6.642,6.642,0,0,0,.413-2.228c.058-1.272.07-1.652.07-4.847s-.012-3.575-.07-4.847a6.656,6.656,0,0,0-.413-2.227,3.731,3.731,0,0,0-.9-1.38,3.731,3.731,0,0,0-1.38-.9,6.659,6.659,0,0,0-2.228-.413C15.588,2.174,15.21,2.162,12,2.162Z" transform="translate(0 0.008)" fill="#fff"/>
      </g>
    </g>
    <path id="Fill_4" data-name="Fill 4" d="M6,12a6,6,0,1,1,6-6A6.007,6.007,0,0,1,6,12ZM6,2.105A3.895,3.895,0,1,0,9.895,6,3.9,3.9,0,0,0,6,2.105Z" transform="translate(6 6)" fill="#fff"/>
    <path id="Fill_5" data-name="Fill 5" d="M3,1.5A1.5,1.5,0,1,1,1.5,0,1.5,1.5,0,0,1,3,1.5" transform="translate(17 4)" fill="#fff"/>
  </g>
</svg>
