<svg id="Group_3" data-name="Group 3" xmlns="http://www.w3.org/2000/svg" width="23" height="18" viewBox="0 0 23 18">
  <path id="Fill_1" data-name="Fill 1" d="M7.225,18A13.081,13.081,0,0,0,20.653,5.076c0-.195,0-.39-.009-.585A9.422,9.422,0,0,0,23,2.135a9.857,9.857,0,0,1-2.715.718A4.606,4.606,0,0,0,22.365.337a9.616,9.616,0,0,1-3,1.1A4.8,4.8,0,0,0,15.922,0,4.639,4.639,0,0,0,11.2,4.544a4.839,4.839,0,0,0,.12,1.036A13.582,13.582,0,0,1,1.592.833,4.413,4.413,0,0,0,.957,3.118,4.512,4.512,0,0,0,3.056,6.9,4.915,4.915,0,0,1,.92,6.334V6.4A4.6,4.6,0,0,0,4.7,10.851a4.925,4.925,0,0,1-2.126.08,4.7,4.7,0,0,0,4.409,3.154,9.7,9.7,0,0,1-5.863,1.949A9.432,9.432,0,0,1,0,15.972,13.809,13.809,0,0,0,7.225,18" fill="#6e298d"/>
</svg>
