<svg id="Group_3" data-name="Group 3" xmlns="http://www.w3.org/2000/svg" xmlns:xlink="http://www.w3.org/1999/xlink" width="20" height="14" viewBox="0 0 20 14">
  <defs>
    <clipPath id="clip-path">
      <path id="Clip_2" data-name="Clip 2" d="M0,0H20V14H0Z" fill="none"/>
    </clipPath>
  </defs>
  <path id="Clip_2-2" data-name="Clip 2" d="M0,0H20V14H0Z" fill="none"/>
  <g id="Group_3-2" data-name="Group 3" clip-path="url(#clip-path)">
    <path id="Fill_1" data-name="Fill 1" d="M10,14c-.063,0-6.272,0-7.814-.418A2.5,2.5,0,0,1,.418,11.814,26.2,26.2,0,0,1,0,7,26.192,26.192,0,0,1,.418,2.186,2.507,2.507,0,0,1,2.186.418C3.728,0,9.937,0,10,0s6.272,0,7.814.418a2.507,2.507,0,0,1,1.768,1.768A26.192,26.192,0,0,1,20,7a26.2,26.2,0,0,1-.418,4.814,2.5,2.5,0,0,1-1.768,1.768C16.272,14,10.062,14,10,14ZM7.954,4.046V9.955L13.181,7Z" fill="#fefefe"/>
  </g>
</svg>
